<svg width="309" height="81" viewBox="0 0 309 81" fill="none" xmlns="http://www.w3.org/2000/svg">
<path fill-rule="evenodd" clip-rule="evenodd" d="M46.4733 23.9433L41.3535 14.8661V23.9433C41.3535 30 41.3535 34.0872 41.3535 40.3535C46.076 43.0171 33.5701 52.0412 36.2337 56.7637L41.3535 65.8409L46.4733 56.7637C49.1369 52.0412 53.0412 48.1369 57.7637 45.4733L66.8409 40.3535L57.7637 35.2337C53.0412 32.5701 49.1369 28.6658 46.4733 23.9433ZM54.302 7.56283C48.6145 -2.52095 34.0925 -2.52094 28.405 7.56283L23.2852 16.64C21.9534 19.0013 20.0013 20.9534 17.64 22.2852L8.56283 27.405C-1.52095 33.0925 -1.52094 47.6145 8.56283 53.302L17.64 58.4218C20.0013 59.7536 21.9534 61.7057 23.2852 64.067L28.405 73.1442C34.0925 83.228 48.6145 83.228 54.302 73.1442L59.4218 64.067C60.7536 61.7057 62.7057 59.7536 65.067 58.4218L74.1442 53.302C84.228 47.6145 84.228 33.0925 74.1442 27.405L65.067 22.2852C62.7057 20.9534 60.7536 19.0013 59.4218 16.64L54.302 7.56283Z" fill="#FBBC04"/>
<path d="M8.56289 53.302L17.6401 58.4218C20.0013 59.7536 21.9535 61.7057 23.2853 64.067L28.4051 73.1442C31.8214 79.2013 38.4255 81.62 44.3876 80.4004C43.9122 76.5921 41.445 72.6071 41.445 65.8035V41H16.5C11.5 41 4.70153 41.1897 1.50002 41C0.068038 46.5141 1.34258 49.1689 8.56289 53.302Z" fill="#246FDB"/>
<path d="M74.1158 53.302L65.0386 58.4218C62.6774 59.7536 60.7252 61.7057 59.3934 64.067L54.2736 73.1442C50.8573 79.2013 47.2119 80.6983 41.2337 80.6983V65.8035V41H67C72.5 41 77.9878 36.4651 81.1893 36.2755C82.6213 41.7896 81.3361 49.1689 74.1158 53.302Z" fill="#00AC47"/>
<path d="M54.302 7.59122L59.4218 16.6684C60.7536 19.0297 62.7057 20.9818 65.067 22.3136L74.1442 27.4334C80.2013 30.8498 82.7197 35.0378 81.5 41L67 41L41.3535 41L41.3535 14.8945L41.3535 0C47 2.46816e-07 50.1689 0.370904 54.302 7.59122Z" fill="#EA4335"/>
<path d="M33.2969 50H26.0469L37.0938 18H45.8125L56.8438 50H49.5938L41.5781 25.3125H41.3281L33.2969 50ZM32.8438 37.4219H49.9688V42.7031H32.8438V37.4219Z" fill="white"/>
<path d="M25 58.75H57.9062V61.75H25V58.75Z" fill="white"/>
<path d="M126.293 28.2018C126.011 25.8168 124.865 23.9653 122.857 22.6473C120.848 21.3292 118.385 20.6702 115.466 20.6702C113.332 20.6702 111.465 21.0154 109.865 21.7058C108.28 22.3962 107.04 23.3455 106.146 24.5537C105.267 25.7619 104.828 27.1348 104.828 28.6725C104.828 29.9592 105.134 31.0654 105.746 31.9912C106.374 32.9012 107.174 33.6622 108.147 34.2742C109.119 34.8704 110.139 35.3647 111.206 35.757C112.273 36.1335 113.254 36.4395 114.148 36.6749L119.044 37.9929C120.299 38.3224 121.696 38.7774 123.233 39.358C124.787 39.9386 126.27 40.731 127.682 41.7352C129.11 42.7237 130.286 43.9947 131.212 45.548C132.138 47.1014 132.601 49.0079 132.601 51.2674C132.601 53.872 131.918 56.2257 130.553 58.3282C129.204 60.4308 127.227 62.1019 124.622 63.3415C122.033 64.581 118.887 65.2008 115.184 65.2008C111.732 65.2008 108.743 64.6438 106.217 63.5297C103.706 62.4157 101.729 60.8623 100.285 58.8696C98.8576 56.8768 98.0496 54.5624 97.8613 51.9264H103.887C104.043 53.7465 104.655 55.2528 105.722 56.4453C106.805 57.6221 108.17 58.5008 109.818 59.0814C111.481 59.6463 113.27 59.9287 115.184 59.9287C117.412 59.9287 119.413 59.5678 121.186 58.846C122.959 58.1086 124.363 57.0887 125.399 55.7863C126.434 54.4683 126.952 52.9306 126.952 51.1732C126.952 49.5727 126.505 48.2704 125.611 47.2662C124.716 46.262 123.539 45.4461 122.08 44.8184C120.621 44.1908 119.044 43.6416 117.349 43.1709L111.418 41.4763C107.652 40.3936 104.671 38.8481 102.474 36.8396C100.278 34.8312 99.1793 32.203 99.1793 28.955C99.1793 26.2562 99.9089 23.9025 101.368 21.8941C102.843 19.87 104.82 18.3009 107.299 17.1869C109.794 16.0571 112.579 15.4922 115.655 15.4922C118.761 15.4922 121.523 16.0493 123.939 17.1633C126.356 18.2617 128.27 19.768 129.682 21.6823C131.11 23.5966 131.863 25.7697 131.942 28.2018H126.293ZM164.228 49.5727V28.2018H169.782V64.3535H164.228V58.2341H163.851C163.004 60.0699 161.686 61.6312 159.897 62.9178C158.108 64.1888 155.849 64.8242 153.119 64.8242C150.859 64.8242 148.851 64.33 147.093 63.3415C145.336 62.3372 143.955 60.8309 142.951 58.8225C141.947 56.7984 141.445 54.2486 141.445 51.1732V28.2018H146.999V50.7966C146.999 53.4327 147.737 55.5353 149.211 57.1043C150.702 58.6734 152.601 59.458 154.907 59.458C156.288 59.458 157.692 59.1049 159.12 58.3988C160.564 57.6928 161.772 56.6101 162.745 55.1508C163.733 53.6916 164.228 51.8322 164.228 49.5727ZM180.709 64.3535V16.1513H186.263V33.9447H186.734C187.142 33.317 187.707 32.5168 188.429 31.544C189.166 30.5555 190.218 29.6768 191.583 28.9079C192.963 28.1234 194.831 27.7311 197.184 27.7311C200.228 27.7311 202.911 28.4921 205.234 30.0141C207.556 31.5361 209.368 33.6936 210.671 36.4866C211.973 39.2796 212.624 42.5746 212.624 46.3718C212.624 50.2004 211.973 53.519 210.671 56.3277C209.368 59.1206 207.564 61.286 205.257 62.8237C202.951 64.3457 200.291 65.1067 197.278 65.1067C194.956 65.1067 193.097 64.7223 191.7 63.9534C190.304 63.1689 189.229 62.2823 188.476 61.2938C187.723 60.2896 187.142 59.458 186.734 58.799H186.075V64.3535H180.709ZM186.169 46.2777C186.169 49.0079 186.569 51.4164 187.37 53.5033C188.17 55.5745 189.339 57.1985 190.877 58.3753C192.414 59.5364 194.297 60.117 196.525 60.117C198.847 60.117 200.785 59.505 202.339 58.2812C203.908 57.0416 205.085 55.3784 205.869 53.2915C206.669 51.1889 207.069 48.851 207.069 46.2777C207.069 43.7358 206.677 41.4449 205.893 39.4051C205.124 37.3496 203.955 35.7256 202.386 34.5331C200.832 33.3249 198.879 32.7208 196.525 32.7208C194.266 32.7208 192.367 33.2935 190.829 34.4389C189.292 35.5687 188.131 37.1534 187.346 39.1933C186.562 41.2174 186.169 43.5788 186.169 46.2777ZM220.085 64.3535V60.117L240.609 33.7564V33.3798H220.744V28.2018H247.764V32.6266L227.805 58.799V59.1755H248.423V64.3535H220.085ZM256.978 64.3535V28.2018H262.533V64.3535H256.978ZM259.802 22.1765C258.72 22.1765 257.786 21.8078 257.002 21.0703C256.233 20.3329 255.848 19.4463 255.848 18.4107C255.848 17.3751 256.233 16.4886 257.002 15.7511C257.786 15.0137 258.72 14.6449 259.802 14.6449C260.885 14.6449 261.811 15.0137 262.58 15.7511C263.364 16.4886 263.757 17.3751 263.757 18.4107C263.757 19.4463 263.364 20.3329 262.58 21.0703C261.811 21.8078 260.885 22.1765 259.802 22.1765ZM287.393 65.1067C284.129 65.1067 281.266 64.33 278.802 62.7766C276.354 61.2232 274.44 59.05 273.059 56.257C271.694 53.4641 271.012 50.2004 271.012 46.466C271.012 42.7002 271.694 39.4129 273.059 36.6043C274.44 33.7956 276.354 31.6146 278.802 30.0612C281.266 28.5078 284.129 27.7311 287.393 27.7311C290.657 27.7311 293.512 28.5078 295.96 30.0612C298.424 31.6146 300.338 33.7956 301.703 36.6043C303.084 39.4129 303.774 42.7002 303.774 46.466C303.774 50.2004 303.084 53.4641 301.703 56.257C300.338 59.05 298.424 61.2232 295.96 62.7766C293.512 64.33 290.657 65.1067 287.393 65.1067ZM287.393 60.117C289.872 60.117 291.912 59.4815 293.512 58.2106C295.113 56.9396 296.297 55.2685 297.066 53.1973C297.835 51.1261 298.22 48.8823 298.22 46.466C298.22 44.0496 297.835 41.7979 297.066 39.7111C296.297 37.6242 295.113 35.9374 293.512 34.6508C291.912 33.3641 289.872 32.7208 287.393 32.7208C284.914 32.7208 282.874 33.3641 281.273 34.6508C279.673 35.9374 278.488 37.6242 277.719 39.7111C276.951 41.7979 276.566 44.0496 276.566 46.466C276.566 48.8823 276.951 51.1261 277.719 53.1973C278.488 55.2685 279.673 56.9396 281.273 58.2106C282.874 59.4815 284.914 60.117 287.393 60.117Z" fill="#383838"/>
</svg>
